<svg width="60" height="47" viewBox="0 0 60 47" fill="none" xmlns="http://www.w3.org/2000/svg">
<path d="M31.4792 19.6603C31.4792 21.4647 30.3854 22.5033 28.4583 22.5033H25.9271V16.8172H28.4687C30.3854 16.8172 31.4792 17.8453 31.4792 19.6603ZM36.4271 26.2277C36.4271 27.0984 37.1771 27.665 38.3542 27.665C39.8542 27.665 40.9792 26.7103 40.9792 25.3674V24.5596L38.5312 24.717C37.1458 24.8114 36.4271 25.3254 36.4271 26.2277ZM60 5.03571V41.9643C60 44.7444 57.7604 47 55 47H5C2.23958 47 0 44.7444 0 41.9643V5.03571C0 2.25558 2.23958 0 5 0H55C57.7604 0 60 2.25558 60 5.03571ZM13.3125 17.4362C14.1875 17.5096 15.0625 16.9955 15.6146 16.3451C16.1562 15.6737 16.5104 14.7714 16.4167 13.8587C15.6458 13.8902 14.6875 14.3728 14.1354 15.0442C13.6354 15.6212 13.2083 16.5549 13.3125 17.4362ZM19.625 25.252C19.6042 25.231 17.5833 24.4547 17.5625 22.1047C17.5417 20.1429 19.1562 19.1987 19.2292 19.1462C18.3125 17.7824 16.8958 17.6355 16.4062 17.604C15.1354 17.5306 14.0521 18.3279 13.4479 18.3279C12.8333 18.3279 11.9167 17.6355 10.9167 17.6565C9.61458 17.6775 8.39583 18.4223 7.73958 19.6078C6.375 21.9788 7.38542 25.4828 8.70833 27.4132C9.35417 28.3679 10.1354 29.417 11.1562 29.375C12.125 29.333 12.5104 28.7455 13.6771 28.7455C14.8542 28.7455 15.1875 29.375 16.2083 29.3645C17.2708 29.3435 17.9271 28.4098 18.5833 27.4551C19.3021 26.3641 19.6042 25.315 19.625 25.252ZM33.7292 19.6498C33.7292 16.8592 31.8021 14.9498 29.0521 14.9498H23.7188V29.2596H25.9271V24.3708H28.9792C31.7708 24.3708 33.7292 22.4404 33.7292 19.6498ZM43.1042 22.1362C43.1042 20.0694 41.4583 18.7371 38.9375 18.7371C36.5937 18.7371 34.8646 20.0904 34.8021 21.9368H36.7917C36.9583 21.0556 37.7708 20.4786 38.875 20.4786C40.2292 20.4786 40.9792 21.108 40.9792 22.283V23.0699L38.2292 23.2377C35.6667 23.3951 34.2812 24.4547 34.2812 26.2906C34.2812 28.1475 35.7083 29.375 37.7604 29.375C39.1458 29.375 40.4271 28.6721 41.0104 27.5496H41.0521V29.2701H43.0938V22.1362H43.1042ZM53.75 18.8734H51.5104L48.9167 27.3292H48.875L46.2812 18.8734H43.9583L47.6979 29.2911L47.5 29.9205C47.1667 30.9906 46.6146 31.4103 45.6354 31.4103C45.4583 31.4103 45.125 31.3893 44.9896 31.3788V33.0993C45.1146 33.1413 45.6667 33.1518 45.8333 33.1518C47.9896 33.1518 49 32.323 49.8854 29.8156L53.75 18.8734Z" fill="#786483"/>
</svg>
