<svg width="60" height="46" viewBox="0 0 60 46" fill="none" xmlns="http://www.w3.org/2000/svg">
<path d="M50.3021 38.7406C50.3021 39.4388 49.8229 39.942 49.1354 39.942C48.4271 39.942 47.9688 39.408 47.9688 38.7406C47.9688 38.0732 48.4271 37.5393 49.1354 37.5393C49.8229 37.5393 50.3021 38.0732 50.3021 38.7406ZM17.9271 37.5393C17.1875 37.5393 16.7604 38.0732 16.7604 38.7406C16.7604 39.408 17.1875 39.942 17.9271 39.942C18.6042 39.942 19.0625 39.4388 19.0625 38.7406C19.0521 38.0732 18.6042 37.5393 17.9271 37.5393ZM30.1667 37.5085C29.6042 37.5085 29.2604 37.8679 29.1771 38.4018H31.1667C31.0729 37.8165 30.7083 37.5085 30.1667 37.5085ZM41.3958 37.5393C40.6875 37.5393 40.2604 38.0732 40.2604 38.7406C40.2604 39.408 40.6875 39.942 41.3958 39.942C42.1042 39.942 42.5625 39.4388 42.5625 38.7406C42.5625 38.0732 42.1042 37.5393 41.3958 37.5393ZM52.4271 40.2192C52.4271 40.25 52.4583 40.2705 52.4583 40.3321C52.4583 40.3629 52.4271 40.3835 52.4271 40.4451C52.3958 40.4759 52.3958 40.4964 52.375 40.5272C52.3437 40.558 52.3229 40.5786 52.2604 40.5786C52.2292 40.6094 52.2083 40.6094 52.1458 40.6094C52.1146 40.6094 52.0938 40.6094 52.0312 40.5786C52 40.5786 51.9792 40.5478 51.9479 40.5272C51.9167 40.4964 51.8958 40.4759 51.8958 40.4451C51.8646 40.3937 51.8646 40.3629 51.8646 40.3321C51.8646 40.2808 51.8646 40.25 51.8958 40.2192C51.8958 40.1679 51.9271 40.1371 51.9479 40.1063C51.9792 40.0754 52 40.0754 52.0312 40.0549C52.0833 40.0241 52.1146 40.0241 52.1458 40.0241C52.1979 40.0241 52.2292 40.0241 52.2604 40.0549C52.3125 40.0857 52.3437 40.0857 52.375 40.1063C52.4062 40.1268 52.3958 40.1679 52.4271 40.2192ZM52.1979 40.3629C52.25 40.3629 52.25 40.3321 52.2812 40.3321C52.3125 40.3013 52.3125 40.2808 52.3125 40.25C52.3125 40.2192 52.3125 40.1987 52.2812 40.1679C52.25 40.1679 52.2292 40.1371 52.1667 40.1371H52V40.4964H52.0833V40.3527H52.1146L52.2292 40.4964H52.3125L52.1979 40.3629ZM60 4.92857V41.0714C60 43.7924 57.7604 46 55 46H5C2.23958 46 0 43.7924 0 41.0714V4.92857C0 2.20759 2.23958 0 5 0H55C57.7604 0 60 2.20759 60 4.92857ZM6.66667 19.2625C6.66667 27.1174 13.1354 33.4835 21.0938 33.4835C23.9271 33.4835 26.7083 32.6415 29.0625 31.1116C21.4688 25.0228 21.5208 13.533 29.0625 7.4442C26.7083 5.90402 23.9271 5.07232 21.0938 5.07232C13.1354 5.06205 6.66667 11.4384 6.66667 19.2625ZM30 30.4339C37.3438 24.7866 37.3125 13.7795 30 8.10134C22.6875 13.7795 22.6562 24.7969 30 30.4339ZM15.1771 38.2683C15.1771 37.375 14.5833 36.7897 13.6458 36.7589C13.1667 36.7589 12.6562 36.9027 12.3125 37.4263C12.0625 37.0054 11.6354 36.7589 11.0417 36.7589C10.6458 36.7589 10.25 36.9027 9.9375 37.3134V36.8616H9.08333V40.6299H9.9375C9.9375 38.6893 9.67708 37.529 10.875 37.529C11.9375 37.529 11.7292 38.5763 11.7292 40.6299H12.5521C12.5521 38.7509 12.2917 37.529 13.4896 37.529C14.5521 37.529 14.3437 38.5558 14.3437 40.6299H15.1979V38.2683H15.1771ZM19.8542 36.8616H19.0312V37.3134C18.75 36.9746 18.3542 36.7589 17.8125 36.7589C16.7396 36.7589 15.9167 37.6009 15.9167 38.7406C15.9167 39.8906 16.7396 40.7223 17.8125 40.7223C18.3542 40.7223 18.75 40.5272 19.0312 40.1679V40.6402H19.8542V36.8616ZM24.0729 39.4902C24.0729 37.95 21.6875 38.6482 21.6875 37.9295C21.6875 37.3442 22.9271 37.4366 23.6146 37.8165L23.9583 37.1491C22.9792 36.5228 20.8125 36.533 20.8125 37.9911C20.8125 39.4594 23.1979 38.8433 23.1979 39.5312C23.1979 40.1781 21.7917 40.1268 21.0417 39.6134L20.6771 40.2603C21.8438 41.0406 24.0729 40.8763 24.0729 39.4902ZM27.7604 40.4451L27.5312 39.7469C27.1354 39.9625 26.2604 40.1987 26.2604 39.3259V37.6214H27.625V36.8616H26.2604V35.7116H25.4062V36.8616H24.6146V37.6112H25.4062V39.3259C25.4062 41.133 27.2083 40.8045 27.7604 40.4451ZM29.1458 39.0692H32.0104C32.0104 37.4058 31.2396 36.7487 30.1979 36.7487C29.0937 36.7487 28.3021 37.5598 28.3021 38.7304C28.3021 40.8353 30.6562 41.1844 31.8229 40.1884L31.4271 39.5723C30.6146 40.2295 29.3854 40.1679 29.1458 39.0692ZM35.3021 36.8616C34.8229 36.6562 34.0938 36.6768 33.7188 37.3134V36.8616H32.8646V40.6299H33.7188V38.5045C33.7188 37.3134 34.7083 37.4674 35.0521 37.642L35.3021 36.8616ZM36.4062 38.7406C36.4062 37.5701 37.6146 37.1902 38.5625 37.8781L38.9583 37.2107C37.75 36.2763 35.5521 36.7897 35.5521 38.7509C35.5521 40.7839 37.8854 41.1946 38.9583 40.2911L38.5625 39.6237C37.6042 40.2911 36.4062 39.8906 36.4062 38.7406ZM43.3542 36.8616H42.5V37.3134C41.6354 36.1839 39.3854 36.8205 39.3854 38.7406C39.3854 40.7121 41.7188 41.2768 42.5 40.1679V40.6402H43.3542V36.8616ZM46.8646 36.8616C46.6146 36.7384 45.7188 36.5638 45.2812 37.3134V36.8616H44.4583V40.6299H45.2812V38.5045C45.2812 37.375 46.2188 37.4469 46.6146 37.642L46.8646 36.8616ZM51.0625 35.3317H50.2396V37.3134C49.3854 36.1942 47.125 36.7897 47.125 38.7406C47.125 40.7326 49.4687 41.2665 50.2396 40.1679V40.6402H51.0625V35.3317ZM51.8542 27.6205V28.0929H51.9375V27.6205H52.1354V27.5384H51.6562V27.6205H51.8542ZM52.5417 40.3321C52.5417 40.2808 52.5417 40.2192 52.5104 40.1679C52.4792 40.1371 52.4583 40.0857 52.4271 40.0549C52.3958 40.0241 52.3438 40.0036 52.3125 39.9728C52.2604 39.9728 52.1979 39.942 52.1458 39.942C52.1146 39.942 52.0625 39.9728 52 39.9728C51.9479 40.0036 51.9167 40.0241 51.8854 40.0549C51.8333 40.0857 51.8021 40.1371 51.8021 40.1679C51.7708 40.2192 51.7708 40.2808 51.7708 40.3321C51.7708 40.3629 51.7708 40.4143 51.8021 40.4759C51.8021 40.5067 51.8333 40.558 51.8854 40.5888C51.9167 40.6196 51.9375 40.6402 52 40.671C52.0521 40.7018 52.1146 40.7018 52.1458 40.7018C52.1979 40.7018 52.2604 40.7018 52.3125 40.671C52.3438 40.6402 52.3958 40.6196 52.4271 40.5888C52.4583 40.558 52.4792 40.5067 52.5104 40.4759C52.5417 40.4143 52.5417 40.3629 52.5417 40.3321ZM52.875 27.5281H52.7292L52.5625 27.8875L52.3958 27.5281H52.25V28.0826H52.3333V27.6616L52.5 28.021H52.6146L52.7604 27.6616V28.0826H52.875V27.5281ZM53.3333 19.2625C53.3333 11.4384 46.8646 5.06205 38.9062 5.06205C36.0729 5.06205 33.2917 5.90402 30.9375 7.43393C38.4479 13.5228 38.5625 25.0433 30.9375 31.1013C33.2917 32.6415 36.0938 33.4732 38.9062 33.4732C46.8646 33.4835 53.3333 27.1174 53.3333 19.2625Z" fill="#786483"/>
</svg>
