<svg width="60" height="47" viewBox="0 0 60 47" fill="none" xmlns="http://www.w3.org/2000/svg">
<path d="M19.4062 23.7308C19.4062 25.0107 18.3958 25.9864 17.1146 25.9864C16.1562 25.9864 15.4479 25.4408 15.4479 24.4127C15.4479 23.1328 16.4375 22.1047 17.7083 22.1047C18.6771 22.1047 19.4062 22.7027 19.4062 23.7308ZM8.38542 18.6426H7.89583C7.73958 18.6426 7.58333 18.7475 7.5625 18.9259L7.11458 21.727L7.96875 21.6955C9.11458 21.6955 10 21.5382 10.2083 20.2058C10.4479 18.8 9.5625 18.6426 8.38542 18.6426ZM37.9688 18.6426H37.5C37.3125 18.6426 37.1875 18.7475 37.1667 18.9259L36.7292 21.727L37.5625 21.6955C38.9167 21.6955 39.8542 21.3808 39.8542 19.8071C39.8438 18.6951 38.8542 18.6426 37.9688 18.6426ZM60 5.03571V41.9643C60 44.7444 57.7604 47 55 47H5C2.23958 47 0 44.7444 0 41.9643V5.03571C0 2.25558 2.23958 0 5 0H55C57.7604 0 60 2.25558 60 5.03571ZM13.3646 19.2406C13.3646 17.0375 11.6771 16.3031 9.75 16.3031H5.58333C5.32292 16.3031 5.0625 16.5129 5.04167 16.7962L3.33333 27.5076C3.30208 27.7174 3.45833 27.9272 3.66667 27.9272H5.64583C5.92708 27.9272 6.1875 27.623 6.21875 27.3292L6.6875 24.5386C6.79167 23.7833 8.0625 24.0455 8.5625 24.0455C11.5417 24.0455 13.3646 22.2621 13.3646 19.2406ZM22.1354 20.1638H20.1562C19.7604 20.1638 19.7396 20.7408 19.7188 21.0241C19.1146 20.1324 18.2396 19.975 17.25 19.975C14.6979 19.975 12.75 22.2306 12.75 24.717C12.75 26.7627 14.0208 28.0951 16.0521 28.0951C16.9896 28.0951 18.1562 27.581 18.8125 26.8467C18.7604 27.004 18.7083 27.3397 18.7083 27.4971C18.7083 27.7384 18.8125 27.9167 19.0417 27.9167H20.8333C21.1146 27.9167 21.3542 27.6125 21.4062 27.3188L22.4688 20.573C22.5 20.3737 22.3438 20.1638 22.1354 20.1638ZM26.3542 30.4346L32.9896 20.7199C33.0417 20.6674 33.0417 20.615 33.0417 20.5415C33.0417 20.3632 32.8854 20.1743 32.7083 20.1743H30.7083C30.5312 20.1743 30.3437 20.2792 30.2396 20.4366L27.4792 24.5281L26.3333 20.594C26.25 20.3632 26.0208 20.1743 25.7604 20.1743H23.8125C23.6354 20.1743 23.4792 20.3632 23.4792 20.5415C23.4792 20.6674 25.5104 26.5004 25.6875 27.0565C25.4062 27.4551 23.5521 30.0569 23.5521 30.3717C23.5521 30.5605 23.7083 30.7074 23.8854 30.7074H25.8854C26.0729 30.6969 26.25 30.592 26.3542 30.4346ZM42.9479 19.2406C42.9479 17.0375 41.2604 16.3031 39.3333 16.3031H35.1979C34.9167 16.3031 34.6562 16.5129 34.625 16.7962L32.9375 27.4971C32.9167 27.7069 33.0729 27.9167 33.2708 27.9167H35.4062C35.6146 27.9167 35.7708 27.7594 35.8229 27.581L36.2917 24.5386C36.3958 23.7833 37.6667 24.0455 38.1667 24.0455C41.125 24.0455 42.9479 22.2621 42.9479 19.2406ZM51.7188 20.1638H49.7396C49.3438 20.1638 49.3229 20.7408 49.2917 21.0241C48.7188 20.1324 47.8333 19.975 46.8229 19.975C44.2708 19.975 42.3229 22.2306 42.3229 24.717C42.3229 26.7627 43.5938 28.0951 45.625 28.0951C46.5938 28.0951 47.7604 27.581 48.3854 26.8467C48.3542 27.004 48.2812 27.3397 48.2812 27.4971C48.2812 27.7384 48.3854 27.9167 48.6146 27.9167H50.4167C50.6979 27.9167 50.9375 27.6125 50.9896 27.3188L52.0521 20.573C52.0833 20.3737 51.9271 20.1638 51.7188 20.1638ZM56.6667 16.6703C56.6667 16.4605 56.5104 16.3031 56.3333 16.3031H54.4062C54.25 16.3031 54.0937 16.429 54.0729 16.5864L52.3854 27.4971L52.3542 27.5496C52.3542 27.7384 52.5104 27.9167 52.7188 27.9167H54.4375C54.6979 27.9167 54.9583 27.6125 54.9792 27.3188L56.6667 16.7018V16.6703ZM47.2917 22.1047C46.0208 22.1047 45.0312 23.1223 45.0312 24.4127C45.0312 25.4304 45.7604 25.9864 46.7188 25.9864C47.9688 25.9864 48.9792 25.0212 48.9792 23.7308C48.9896 22.7027 48.2604 22.1047 47.2917 22.1047Z" fill="#786483"/>
</svg>
