<svg width="60" height="47" viewBox="0 0 60 47" fill="none" xmlns="http://www.w3.org/2000/svg">
<path d="M48.9688 20.9087C48.9688 20.9087 49.7604 24.8114 49.9375 25.6297H46.4583C46.8021 24.696 48.125 21.0661 48.125 21.0661C48.1042 21.0975 48.4687 20.1114 48.6771 19.5029L48.9688 20.9087ZM60 5.03571V41.9643C60 44.7444 57.7604 47 55 47H5C2.23958 47 0 44.7444 0 41.9643V5.03571C0 2.25558 2.23958 0 5 0H55C57.7604 0 60 2.25558 60 5.03571ZM15.8854 31.3893L22.4688 15.1071H18.0417L13.9479 26.2277L13.5 23.9721L12.0417 16.4815C11.8021 15.4429 11.0625 15.1491 10.1458 15.1071H3.40625L3.33333 15.4324C4.97917 15.852 6.44792 16.4605 7.72917 17.2263L11.4583 31.3893H15.8854ZM25.7187 31.4103L28.3438 15.1071H24.1562L21.5417 31.4103H25.7187ZM40.2917 26.0808C40.3125 24.2239 39.1875 22.8076 36.7812 21.6431C35.3125 20.8982 34.4167 20.3946 34.4167 19.6288C34.4375 18.9364 35.1771 18.223 36.8229 18.223C38.1875 18.1915 39.1875 18.5167 39.9375 18.842L40.3125 19.0203L40.8854 15.4953C40.0625 15.1701 38.75 14.8029 37.1354 14.8029C33 14.8029 30.0938 17.027 30.0729 20.1953C30.0417 22.5348 32.1562 23.8357 33.7396 24.6225C35.3542 25.4199 35.9062 25.9444 35.9062 26.6473C35.8854 27.7384 34.5938 28.242 33.3958 28.242C31.7292 28.242 30.8333 27.9797 29.4687 27.3712L28.9167 27.1089L28.3333 30.7703C29.3125 31.2214 31.125 31.6201 33 31.6411C37.3958 31.6516 40.2604 29.4589 40.2917 26.0808ZM55 31.4103L51.625 15.1071H48.3854C47.3854 15.1071 46.625 15.4009 46.1979 16.4605L39.9792 31.4103H44.375C44.375 31.4103 45.0938 29.396 45.25 28.9658H50.625C50.75 29.5429 51.125 31.4103 51.125 31.4103H55Z" fill="#786483"/>
</svg>
