<svg width="24" height="28" viewBox="0 0 24 28" fill="none" xmlns="http://www.w3.org/2000/svg">
<path d="M18.8571 8.75V7C18.8571 3.14016 15.781 0 12 0C8.21893 0 5.14286 3.14016 5.14286 7V8.75H0V23.625C0 26.0413 1.91877 28 4.28571 28H19.7143C22.0812 28 24 26.0413 24 23.625V8.75H18.8571ZM8.57143 7C8.57143 5.07008 10.1095 3.5 12 3.5C13.8905 3.5 15.4286 5.07008 15.4286 7V8.75H8.57143V7ZM17.1429 13.5625C16.4328 13.5625 15.8571 12.9749 15.8571 12.25C15.8571 11.5251 16.4328 10.9375 17.1429 10.9375C17.8529 10.9375 18.4286 11.5251 18.4286 12.25C18.4286 12.9749 17.8529 13.5625 17.1429 13.5625ZM6.85714 13.5625C6.14705 13.5625 5.57143 12.9749 5.57143 12.25C5.57143 11.5251 6.14705 10.9375 6.85714 10.9375C7.56723 10.9375 8.14286 11.5251 8.14286 12.25C8.14286 12.9749 7.56723 13.5625 6.85714 13.5625Z" fill="#5D365D"/>
</svg>
