<svg width="36" height="28" viewBox="0 0 36 28" fill="none" xmlns="http://www.w3.org/2000/svg">
<path d="M33.8893 0.00339412C30.4643 0.197768 23.6567 0.905265 19.4541 3.47775C19.1641 3.65525 18.9997 3.97087 18.9997 4.30087V27.0426C18.9997 27.7645 19.7891 28.2208 20.4547 27.8858C24.7786 25.7095 31.0318 25.1158 34.1237 24.9533C35.1794 24.8976 36 24.0514 36 23.037V1.92213C36.0006 0.815265 35.0406 -0.0616056 33.8893 0.00339412ZM16.5459 3.47775C12.344 0.905265 5.53635 0.198393 2.11129 0.00339412C0.960017 -0.0616056 0 0.815265 0 1.92213V23.0377C0 24.0527 0.820639 24.8989 1.87628 24.9539C4.96946 25.1164 11.2258 25.7108 15.5496 27.8883C16.2134 28.2226 17.0003 27.767 17.0003 27.047V4.28962C17.0003 3.959 16.8365 3.65588 16.5459 3.47775Z" fill="white"/>
</svg>
