<svg width="25" height="28" viewBox="0 0 25 28" fill="none" xmlns="http://www.w3.org/2000/svg">
<path d="M25 5.25V19.25C25 22.0836 21.5612 24.5 17.7443 24.5L21.2588 27.2191C21.5907 27.4759 21.4041 28 20.9821 28H4.01786C3.59498 28 3.41004 27.4753 3.74124 27.2191L7.25569 24.5C3.44978 24.5 0 22.0912 0 19.25V5.25C0 2.35052 3.57143 0 7.14286 0H17.8571C21.4844 0 25 2.35052 25 5.25ZM22.3214 12.6875V6.5625C22.3214 5.83762 21.7218 5.25 20.9821 5.25H4.01786C3.27818 5.25 2.67857 5.83762 2.67857 6.5625V12.6875C2.67857 13.4124 3.27818 14 4.01786 14H20.9821C21.7218 14 22.3214 13.4124 22.3214 12.6875ZM12.5 16.1875C10.7741 16.1875 9.375 17.5586 9.375 19.25C9.375 20.9414 10.7741 22.3125 12.5 22.3125C14.2259 22.3125 15.625 20.9414 15.625 19.25C15.625 17.5586 14.2259 16.1875 12.5 16.1875Z" fill="#5D365D"/>
</svg>
