<svg width="1032" height="629" viewBox="0 0 1032 629" fill="none" xmlns="http://www.w3.org/2000/svg">
<rect y="21" width="1030" height="600.157" fill="#D8BFD8"/>
<rect x="515" y="441" width="94" height="32" rx="8" fill="#5D365D"/>
<rect x="561.5" y="448" width="1" height="18" rx="0.5" fill="#EBEBF5" fill-opacity="0.3"/>
<path d="M531.891 457.762H544.109C544.242 457.762 544.364 457.729 544.475 457.663C544.591 457.596 544.682 457.508 544.749 457.397C544.815 457.281 544.848 457.153 544.848 457.015C544.848 456.882 544.815 456.761 544.749 456.65C544.682 456.534 544.591 456.442 544.475 456.376C544.364 456.31 544.242 456.276 544.109 456.276H531.891C531.758 456.276 531.636 456.31 531.525 456.376C531.415 456.442 531.323 456.534 531.251 456.65C531.185 456.761 531.152 456.882 531.152 457.015C531.152 457.153 531.185 457.281 531.251 457.397C531.323 457.508 531.415 457.596 531.525 457.663C531.636 457.729 531.758 457.762 531.891 457.762Z" fill="white"/>
<path d="M578.152 457.007C578.152 457.212 578.224 457.386 578.368 457.53C578.517 457.674 578.691 457.746 578.891 457.746H584.261V463.116C584.261 463.315 584.333 463.487 584.477 463.631C584.621 463.78 584.795 463.855 585 463.855C585.205 463.855 585.379 463.78 585.523 463.631C585.672 463.487 585.747 463.315 585.747 463.116V457.746H591.109C591.309 457.746 591.48 457.674 591.624 457.53C591.773 457.386 591.848 457.212 591.848 457.007C591.848 456.802 591.773 456.628 591.624 456.484C591.48 456.334 591.309 456.26 591.109 456.26H585.747V450.897C585.747 450.698 585.672 450.527 585.523 450.383C585.379 450.233 585.205 450.159 585 450.159C584.795 450.159 584.621 450.233 584.477 450.383C584.333 450.527 584.261 450.698 584.261 450.897V456.26H578.891C578.691 456.26 578.517 456.334 578.368 456.484C578.224 456.628 578.152 456.802 578.152 457.007Z" fill="white"/>
<rect x="938" y="439" width="94" height="32" rx="8" fill="#5D365D"/>
<rect x="984.75" y="446.25" width="0.5" height="17.5" rx="0.25" stroke="white" stroke-width="0.5"/>
<path d="M954.891 455.762C954.758 455.762 954.636 455.729 954.525 455.663C954.415 455.596 954.323 455.508 954.251 455.397C954.185 455.281 954.152 455.153 954.152 455.015C954.152 454.882 954.185 454.761 954.251 454.65C954.323 454.534 954.415 454.442 954.525 454.376C954.636 454.31 954.758 454.276 954.891 454.276H967.109C967.242 454.276 967.364 454.31 967.475 454.376C967.591 454.442 967.682 454.534 967.749 454.65C967.815 454.761 967.848 454.882 967.848 455.015C967.848 455.153 967.815 455.281 967.749 455.397C967.682 455.508 967.591 455.596 967.475 455.663C967.364 455.729 967.242 455.762 967.109 455.762H954.891Z" fill="white"/>
<path d="M1001.15 455.007C1001.15 454.802 1001.22 454.628 1001.37 454.484C1001.52 454.334 1001.69 454.26 1001.89 454.26H1007.26V448.897C1007.26 448.698 1007.33 448.527 1007.48 448.383C1007.62 448.233 1007.8 448.159 1008 448.159C1008.2 448.159 1008.38 448.233 1008.52 448.383C1008.67 448.527 1008.75 448.698 1008.75 448.897V454.26H1014.11C1014.31 454.26 1014.48 454.334 1014.62 454.484C1014.77 454.628 1014.85 454.802 1014.85 455.007C1014.85 455.212 1014.77 455.386 1014.62 455.53C1014.48 455.674 1014.31 455.746 1014.11 455.746H1008.75V461.116C1008.75 461.315 1008.67 461.487 1008.52 461.631C1008.38 461.78 1008.2 461.855 1008 461.855C1007.8 461.855 1007.62 461.78 1007.48 461.631C1007.33 461.487 1007.26 461.315 1007.26 461.116V455.746H1001.89C1001.69 455.746 1001.52 455.674 1001.37 455.53C1001.22 455.386 1001.15 455.212 1001.15 455.007Z" fill="white"/>
<rect x="938" y="335" width="94" height="32" rx="8" fill="#5D365D"/>
<rect x="984.5" y="342" width="1" height="18" rx="0.5" fill="#EBEBF5" fill-opacity="0.3"/>
<path d="M954.891 351.762C954.758 351.762 954.636 351.729 954.525 351.663C954.415 351.596 954.323 351.508 954.251 351.397C954.185 351.281 954.152 351.153 954.152 351.015C954.152 350.882 954.185 350.761 954.251 350.65C954.323 350.534 954.415 350.442 954.525 350.376C954.636 350.31 954.758 350.276 954.891 350.276H967.109C967.242 350.276 967.364 350.31 967.475 350.376C967.591 350.442 967.682 350.534 967.749 350.65C967.815 350.761 967.848 350.882 967.848 351.015C967.848 351.153 967.815 351.281 967.749 351.397C967.682 351.508 967.591 351.596 967.475 351.663C967.364 351.729 967.242 351.762 967.109 351.762H954.891Z" fill="white"/>
<path d="M1001.15 351.007C1001.15 350.802 1001.22 350.628 1001.37 350.484C1001.52 350.334 1001.69 350.26 1001.89 350.26H1007.26V344.897C1007.26 344.698 1007.33 344.527 1007.48 344.383C1007.62 344.233 1007.8 344.159 1008 344.159C1008.2 344.159 1008.38 344.233 1008.52 344.383C1008.67 344.527 1008.75 344.698 1008.75 344.897V350.26H1014.11C1014.31 350.26 1014.48 350.334 1014.62 350.484C1014.77 350.628 1014.85 350.802 1014.85 351.007C1014.85 351.212 1014.77 351.386 1014.62 351.53C1014.48 351.674 1014.31 351.746 1014.11 351.746H1008.75V357.116C1008.75 357.315 1008.67 357.487 1008.52 357.631C1008.38 357.78 1008.2 357.855 1008 357.855C1007.8 357.855 1007.62 357.78 1007.48 357.631C1007.33 357.487 1007.26 357.315 1007.26 357.116V351.746H1001.89C1001.69 351.746 1001.52 351.674 1001.37 351.53C1001.22 351.386 1001.15 351.212 1001.15 351.007Z" fill="white"/>
<rect x="938" y="237" width="94" height="32" rx="8" fill="#5D365D"/>
<rect x="984.5" y="244" width="1" height="18" rx="0.5" fill="#EBEBF5" fill-opacity="0.3"/>
<path d="M954.891 253.762C954.758 253.762 954.636 253.729 954.525 253.663C954.415 253.596 954.323 253.508 954.251 253.397C954.185 253.281 954.152 253.153 954.152 253.015C954.152 252.882 954.185 252.761 954.251 252.65C954.323 252.534 954.415 252.442 954.525 252.376C954.636 252.31 954.758 252.276 954.891 252.276H967.109C967.242 252.276 967.364 252.31 967.475 252.376C967.591 252.442 967.682 252.534 967.749 252.65C967.815 252.761 967.848 252.882 967.848 253.015C967.848 253.153 967.815 253.281 967.749 253.397C967.682 253.508 967.591 253.596 967.475 253.663C967.364 253.729 967.242 253.762 967.109 253.762H954.891Z" fill="white"/>
<path d="M1001.15 253.007C1001.15 252.802 1001.22 252.628 1001.37 252.484C1001.52 252.334 1001.69 252.26 1001.89 252.26H1007.26V246.897C1007.26 246.698 1007.33 246.527 1007.48 246.383C1007.62 246.233 1007.8 246.159 1008 246.159C1008.2 246.159 1008.38 246.233 1008.52 246.383C1008.67 246.527 1008.75 246.698 1008.75 246.897V252.26H1014.11C1014.31 252.26 1014.48 252.334 1014.62 252.484C1014.77 252.628 1014.85 252.802 1014.85 253.007C1014.85 253.212 1014.77 253.386 1014.62 253.53C1014.48 253.674 1014.31 253.746 1014.11 253.746H1008.75V259.116C1008.75 259.315 1008.67 259.487 1008.52 259.631C1008.38 259.78 1008.2 259.855 1008 259.855C1007.8 259.855 1007.62 259.78 1007.48 259.631C1007.33 259.487 1007.26 259.315 1007.26 259.116V253.746H1001.89C1001.69 253.746 1001.52 253.674 1001.37 253.53C1001.22 253.386 1001.15 253.212 1001.15 253.007Z" fill="white"/>
<rect x="515" y="330" width="94" height="32" rx="8" fill="#5D365D"/>
<rect x="561.5" y="337" width="1" height="18" rx="0.5" fill="#EBEBF5" fill-opacity="0.3"/>
<path d="M531.891 346.762C531.758 346.762 531.636 346.729 531.525 346.663C531.415 346.596 531.323 346.508 531.251 346.397C531.185 346.281 531.152 346.153 531.152 346.015C531.152 345.882 531.185 345.761 531.251 345.65C531.323 345.534 531.415 345.442 531.525 345.376C531.636 345.31 531.758 345.276 531.891 345.276H544.109C544.242 345.276 544.364 345.31 544.475 345.376C544.591 345.442 544.682 345.534 544.749 345.65C544.815 345.761 544.848 345.882 544.848 346.015C544.848 346.153 544.815 346.281 544.749 346.397C544.682 346.508 544.591 346.596 544.475 346.663C544.364 346.729 544.242 346.762 544.109 346.762H531.891Z" fill="white"/>
<path d="M578.152 346.007C578.152 345.802 578.224 345.628 578.368 345.484C578.517 345.334 578.691 345.26 578.891 345.26H584.261V339.897C584.261 339.698 584.333 339.527 584.477 339.383C584.621 339.233 584.795 339.159 585 339.159C585.205 339.159 585.379 339.233 585.523 339.383C585.672 339.527 585.747 339.698 585.747 339.897V345.26H591.109C591.309 345.26 591.48 345.334 591.624 345.484C591.773 345.628 591.848 345.802 591.848 346.007C591.848 346.212 591.773 346.386 591.624 346.53C591.48 346.674 591.309 346.746 591.109 346.746H585.747V352.116C585.747 352.315 585.672 352.487 585.523 352.631C585.379 352.78 585.205 352.855 585 352.855C584.795 352.855 584.621 352.78 584.477 352.631C584.333 352.487 584.261 352.315 584.261 352.116V346.746H578.891C578.691 346.746 578.517 346.674 578.368 346.53C578.224 346.386 578.152 346.212 578.152 346.007Z" fill="white"/>
<rect x="516" y="237" width="94" height="32" rx="8" fill="#5D365D"/>
<rect x="562.5" y="244" width="1" height="18" rx="0.5" fill="#EBEBF5" fill-opacity="0.3"/>
<path d="M532.891 253.762C532.758 253.762 532.636 253.729 532.525 253.663C532.415 253.596 532.323 253.508 532.251 253.397C532.185 253.281 532.152 253.153 532.152 253.015C532.152 252.882 532.185 252.761 532.251 252.65C532.323 252.534 532.415 252.442 532.525 252.376C532.636 252.31 532.758 252.276 532.891 252.276H545.109C545.242 252.276 545.364 252.31 545.475 252.376C545.591 252.442 545.682 252.534 545.749 252.65C545.815 252.761 545.848 252.882 545.848 253.015C545.848 253.153 545.815 253.281 545.749 253.397C545.682 253.508 545.591 253.596 545.475 253.663C545.364 253.729 545.242 253.762 545.109 253.762H532.891Z" fill="white"/>
<path d="M579.152 253.007C579.152 252.802 579.224 252.628 579.368 252.484C579.517 252.334 579.691 252.26 579.891 252.26H585.261V246.897C585.261 246.698 585.333 246.527 585.477 246.383C585.621 246.233 585.795 246.159 586 246.159C586.205 246.159 586.379 246.233 586.523 246.383C586.672 246.527 586.747 246.698 586.747 246.897V252.26H592.109C592.309 252.26 592.48 252.334 592.624 252.484C592.773 252.628 592.848 252.802 592.848 253.007C592.848 253.212 592.773 253.386 592.624 253.53C592.48 253.674 592.309 253.746 592.109 253.746H586.747V259.116C586.747 259.315 586.672 259.487 586.523 259.631C586.379 259.78 586.205 259.855 586 259.855C585.795 259.855 585.621 259.78 585.477 259.631C585.333 259.487 585.261 259.315 585.261 259.116V253.746H579.891C579.691 253.746 579.517 253.674 579.368 253.53C579.224 253.386 579.152 253.212 579.152 253.007Z" fill="white"/>
<rect x="515" y="137" width="94" height="32" rx="8" fill="#5D365D"/>
<rect x="561.5" y="144" width="1" height="18" rx="0.5" fill="#EBEBF5" fill-opacity="0.3"/>
<path d="M531.891 153.762C531.758 153.762 531.636 153.729 531.525 153.663C531.415 153.596 531.323 153.508 531.251 153.397C531.185 153.281 531.152 153.153 531.152 153.015C531.152 152.882 531.185 152.761 531.251 152.65C531.323 152.534 531.415 152.442 531.525 152.376C531.636 152.31 531.758 152.276 531.891 152.276H544.109C544.242 152.276 544.364 152.31 544.475 152.376C544.591 152.442 544.682 152.534 544.749 152.65C544.815 152.761 544.848 152.882 544.848 153.015C544.848 153.153 544.815 153.281 544.749 153.397C544.682 153.508 544.591 153.596 544.475 153.663C544.364 153.729 544.242 153.762 544.109 153.762H531.891Z" fill="white"/>
<path d="M578.152 153.007C578.152 152.802 578.224 152.628 578.368 152.484C578.517 152.334 578.691 152.26 578.891 152.26H584.261V146.897C584.261 146.698 584.333 146.527 584.477 146.383C584.621 146.233 584.795 146.159 585 146.159C585.205 146.159 585.379 146.233 585.523 146.383C585.672 146.527 585.747 146.698 585.747 146.897V152.26H591.109C591.309 152.26 591.48 152.334 591.624 152.484C591.773 152.628 591.848 152.802 591.848 153.007C591.848 153.212 591.773 153.386 591.624 153.53C591.48 153.674 591.309 153.746 591.109 153.746H585.747V159.116C585.747 159.315 585.672 159.487 585.523 159.631C585.379 159.78 585.205 159.855 585 159.855C584.795 159.855 584.621 159.78 584.477 159.631C584.333 159.487 584.261 159.315 584.261 159.116V153.746H578.891C578.691 153.746 578.517 153.674 578.368 153.53C578.224 153.386 578.152 153.212 578.152 153.007Z" fill="white"/>
<path d="M1031 512V609H737V512H1031Z" fill="white" stroke="#D9D9D9" stroke-width="2"/>
<mask id="path-31-inside-1_83_502" fill="white">
<rect x="781" y="427" width="60" height="60" rx="0.1"/>
</mask>
<rect x="781" y="427" width="60" height="60" rx="0.1" fill="white" stroke="#D9D9D9" stroke-width="4" mask="url(#path-31-inside-1_83_502)"/>
<mask id="path-32-inside-2_83_502" fill="white">
<rect x="361" y="425" width="60" height="60" rx="0.1"/>
</mask>
<rect x="361" y="425" width="60" height="60" rx="0.1" fill="white" stroke="#D9D9D9" stroke-width="4" mask="url(#path-32-inside-2_83_502)"/>
<mask id="path-33-inside-3_83_502" fill="white">
<rect x="781" y="321" width="60" height="60" rx="0.1"/>
</mask>
<rect x="781" y="321" width="60" height="60" rx="0.1" fill="white" stroke="#D9D9D9" stroke-width="4" mask="url(#path-33-inside-3_83_502)"/>
<mask id="path-34-inside-4_83_502" fill="white">
<rect x="361" y="324" width="60" height="60" rx="0.1"/>
</mask>
<rect x="361" y="324" width="60" height="60" rx="0.1" fill="white" stroke="#D9D9D9" stroke-width="4" mask="url(#path-34-inside-4_83_502)"/>
<mask id="path-35-inside-5_83_502" fill="white">
<rect x="781" y="223" width="60" height="60" rx="0.1"/>
</mask>
<rect x="781" y="223" width="60" height="60" rx="0.1" fill="white" stroke="#D9D9D9" stroke-width="4" mask="url(#path-35-inside-5_83_502)"/>
<mask id="path-36-inside-6_83_502" fill="white">
<rect x="781" y="123" width="60" height="60" rx="0.1"/>
</mask>
<rect x="781" y="123" width="60" height="60" rx="0.1" fill="white" stroke="#D9D9D9" stroke-width="4" mask="url(#path-36-inside-6_83_502)"/>
<mask id="path-37-inside-7_83_502" fill="white">
<rect x="361" y="223" width="60" height="60" rx="0.1"/>
</mask>
<rect x="361" y="223" width="60" height="60" rx="0.1" fill="white" stroke="#D9D9D9" stroke-width="4" mask="url(#path-37-inside-7_83_502)"/>
<mask id="path-38-inside-8_83_502" fill="white">
<rect x="359" y="123" width="60" height="60" rx="0.1"/>
</mask>
<rect x="359" y="123" width="60" height="60" rx="0.1" fill="white" stroke="#D9D9D9" stroke-width="4" mask="url(#path-38-inside-8_83_502)"/>
<path d="M240.953 570.424H237.154V568.891H240.953C241.689 568.891 242.285 568.773 242.74 568.539C243.196 568.305 243.528 567.979 243.736 567.562C243.951 567.146 244.059 566.671 244.059 566.137C244.059 565.648 243.951 565.189 243.736 564.76C243.528 564.33 243.196 563.985 242.74 563.725C242.285 563.458 241.689 563.324 240.953 563.324H237.594V576H235.709V561.781H240.953C242.027 561.781 242.936 561.967 243.678 562.338C244.42 562.709 244.983 563.223 245.367 563.881C245.751 564.532 245.943 565.277 245.943 566.117C245.943 567.029 245.751 567.807 245.367 568.451C244.983 569.096 244.42 569.587 243.678 569.926C242.936 570.258 242.027 570.424 240.953 570.424ZM253.326 561.781H258.033C259.101 561.781 260.003 561.944 260.738 562.27C261.48 562.595 262.044 563.077 262.428 563.715C262.818 564.346 263.014 565.124 263.014 566.049C263.014 566.7 262.88 567.296 262.613 567.836C262.353 568.37 261.975 568.826 261.48 569.203C260.992 569.574 260.406 569.851 259.723 570.033L259.195 570.238H254.771L254.752 568.705H258.092C258.769 568.705 259.332 568.588 259.781 568.354C260.23 568.113 260.569 567.79 260.797 567.387C261.025 566.983 261.139 566.537 261.139 566.049C261.139 565.502 261.031 565.023 260.816 564.613C260.602 564.203 260.263 563.887 259.801 563.666C259.345 563.438 258.756 563.324 258.033 563.324H255.211V576H253.326V561.781ZM261.637 576L258.18 569.555L260.143 569.545L263.648 575.883V576H261.637ZM272.672 561.781V576H270.787V561.781H272.672ZM282.496 561.781L285.914 567.23L289.332 561.781H291.529L287.037 568.822L291.637 576H289.42L285.914 570.443L282.408 576H280.191L284.791 568.822L280.299 561.781H282.496ZM313.639 561.781V576H311.783V561.781H313.639ZM318.209 561.781V563.324H307.223V561.781H318.209ZM335.992 568.441V569.34C335.992 570.408 335.859 571.365 335.592 572.211C335.325 573.057 334.941 573.777 334.439 574.369C333.938 574.962 333.336 575.414 332.633 575.727C331.936 576.039 331.155 576.195 330.289 576.195C329.449 576.195 328.678 576.039 327.975 575.727C327.278 575.414 326.673 574.962 326.158 574.369C325.65 573.777 325.257 573.057 324.977 572.211C324.697 571.365 324.557 570.408 324.557 569.34V568.441C324.557 567.374 324.693 566.42 324.967 565.58C325.247 564.734 325.641 564.014 326.148 563.422C326.656 562.823 327.258 562.367 327.955 562.055C328.658 561.742 329.43 561.586 330.27 561.586C331.135 561.586 331.917 561.742 332.613 562.055C333.316 562.367 333.919 562.823 334.42 563.422C334.928 564.014 335.315 564.734 335.582 565.58C335.855 566.42 335.992 567.374 335.992 568.441ZM334.127 569.34V568.422C334.127 567.576 334.039 566.827 333.863 566.176C333.694 565.525 333.443 564.978 333.111 564.535C332.779 564.092 332.372 563.757 331.891 563.529C331.415 563.301 330.875 563.188 330.27 563.188C329.684 563.188 329.153 563.301 328.678 563.529C328.209 563.757 327.805 564.092 327.467 564.535C327.135 564.978 326.878 565.525 326.695 566.176C326.513 566.827 326.422 567.576 326.422 568.422V569.34C326.422 570.193 326.513 570.948 326.695 571.605C326.878 572.257 327.138 572.807 327.477 573.256C327.822 573.699 328.229 574.034 328.697 574.262C329.173 574.49 329.703 574.604 330.289 574.604C330.901 574.604 331.445 574.49 331.92 574.262C332.395 574.034 332.796 573.699 333.121 573.256C333.453 572.807 333.704 572.257 333.873 571.605C334.042 570.948 334.127 570.193 334.127 569.34ZM348.795 561.781V576H346.939V561.781H348.795ZM353.365 561.781V563.324H342.379V561.781H353.365ZM364.957 563.041L360.25 576H358.326L363.746 561.781H364.986L364.957 563.041ZM368.902 576L364.186 563.041L364.156 561.781H365.396L370.836 576H368.902ZM368.658 570.736V572.279H360.67V570.736H368.658ZM386.363 574.467V576H379.254V574.467H386.363ZM379.625 561.781V576H377.74V561.781H379.625ZM408.746 563.041L404.039 576H402.115L407.535 561.781H408.775L408.746 563.041ZM412.691 576L407.975 563.041L407.945 561.781H409.186L414.625 576H412.691ZM412.447 570.736V572.279H404.459V570.736H412.447ZM436.734 570.424H432.936V568.891H436.734C437.47 568.891 438.066 568.773 438.521 568.539C438.977 568.305 439.309 567.979 439.518 567.562C439.732 567.146 439.84 566.671 439.84 566.137C439.84 565.648 439.732 565.189 439.518 564.76C439.309 564.33 438.977 563.985 438.521 563.725C438.066 563.458 437.47 563.324 436.734 563.324H433.375V576H431.49V561.781H436.734C437.809 561.781 438.717 561.967 439.459 562.338C440.201 562.709 440.764 563.223 441.148 563.881C441.533 564.532 441.725 565.277 441.725 566.117C441.725 567.029 441.533 567.807 441.148 568.451C440.764 569.096 440.201 569.587 439.459 569.926C438.717 570.258 437.809 570.424 436.734 570.424ZM453.023 563.041L448.316 576H446.393L451.812 561.781H453.053L453.023 563.041ZM456.969 576L452.252 563.041L452.223 561.781H453.463L458.902 576H456.969ZM456.725 570.736V572.279H448.736V570.736H456.725ZM465.543 561.781L469.234 568.92L472.936 561.781H475.074L470.172 570.688V576H468.287V570.688L463.385 561.781H465.543ZM490.934 574.467V576H483.404V574.467H490.934ZM483.785 561.781V576H481.9V561.781H483.785ZM489.938 567.895V569.428H483.404V567.895H489.938ZM490.836 561.781V563.324H483.404V561.781H490.836ZM498.268 561.781H502.975C504.042 561.781 504.944 561.944 505.68 562.27C506.422 562.595 506.985 563.077 507.369 563.715C507.76 564.346 507.955 565.124 507.955 566.049C507.955 566.7 507.822 567.296 507.555 567.836C507.294 568.37 506.917 568.826 506.422 569.203C505.934 569.574 505.348 569.851 504.664 570.033L504.137 570.238H499.713L499.693 568.705H503.033C503.71 568.705 504.273 568.588 504.723 568.354C505.172 568.113 505.51 567.79 505.738 567.387C505.966 566.983 506.08 566.537 506.08 566.049C506.08 565.502 505.973 565.023 505.758 564.613C505.543 564.203 505.204 563.887 504.742 563.666C504.286 563.438 503.697 563.324 502.975 563.324H500.152V576H498.268V561.781ZM506.578 576L503.121 569.555L505.084 569.545L508.59 575.883V576H506.578Z" fill="black"/>
<path d="M55.7354 357H53.2119L53.2285 355.697H55.7354C56.5986 355.697 57.318 355.517 57.8936 355.157C58.4691 354.792 58.9007 354.283 59.1885 353.63C59.4818 352.971 59.6284 352.202 59.6284 351.322V350.583C59.6284 349.892 59.5454 349.278 59.3794 348.741C59.2134 348.198 58.9699 347.742 58.6489 347.371C58.328 346.995 57.9351 346.71 57.4702 346.516C57.0109 346.322 56.4824 346.226 55.8848 346.226H53.1621V344.914H55.8848C56.6761 344.914 57.3983 345.047 58.0513 345.312C58.7043 345.573 59.266 345.952 59.7363 346.45C60.2122 346.942 60.5775 347.54 60.832 348.243C61.0866 348.94 61.2139 349.726 61.2139 350.6V351.322C61.2139 352.197 61.0866 352.985 60.832 353.688C60.5775 354.385 60.2095 354.98 59.728 355.473C59.2521 355.965 58.6766 356.344 58.0015 356.61C57.3319 356.87 56.5765 357 55.7354 357ZM54.0669 344.914V357H52.4648V344.914H54.0669ZM65.3394 344.914V357H63.7373V344.914H65.3394ZM68.7593 344.914H70.3115L74.271 354.767L78.2222 344.914H79.7827L74.8687 357H73.6567L68.7593 344.914ZM68.2529 344.914H69.6226L69.8467 352.285V357H68.2529V344.914ZM78.9111 344.914H80.2808V357H78.687V352.285L78.9111 344.914ZM87.7183 345.985L83.7173 357H82.082L86.689 344.914H87.7432L87.7183 345.985ZM91.0718 357L87.0625 345.985L87.0376 344.914H88.0918L92.7153 357H91.0718ZM90.8643 352.526V353.837H84.0742V352.526H90.8643ZM103.631 344.914V357H102.021L95.936 347.678V357H94.334V344.914H95.936L102.045 354.261V344.914H103.631ZM113.766 353.157H115.36C115.277 353.92 115.058 354.604 114.704 355.207C114.35 355.81 113.849 356.289 113.202 356.643C112.554 356.992 111.746 357.166 110.778 357.166C110.069 357.166 109.425 357.033 108.844 356.768C108.268 356.502 107.773 356.126 107.358 355.639C106.943 355.146 106.622 354.557 106.395 353.871C106.174 353.179 106.063 352.41 106.063 351.563V350.359C106.063 349.513 106.174 348.746 106.395 348.06C106.622 347.368 106.946 346.776 107.366 346.284C107.792 345.791 108.304 345.412 108.902 345.146C109.5 344.881 110.172 344.748 110.919 344.748C111.832 344.748 112.604 344.92 113.235 345.263C113.866 345.606 114.355 346.082 114.704 346.69C115.058 347.294 115.277 347.994 115.36 348.791H113.766C113.689 348.226 113.545 347.742 113.334 347.338C113.124 346.928 112.825 346.613 112.438 346.392C112.051 346.17 111.544 346.06 110.919 346.06C110.382 346.06 109.909 346.162 109.5 346.367C109.096 346.571 108.755 346.862 108.479 347.238C108.207 347.615 108.003 348.066 107.864 348.591C107.726 349.117 107.657 349.701 107.657 350.343V351.563C107.657 352.155 107.718 352.711 107.839 353.231C107.967 353.752 108.158 354.208 108.412 354.601C108.667 354.994 108.99 355.304 109.383 355.531C109.776 355.752 110.241 355.863 110.778 355.863C111.458 355.863 112.001 355.755 112.405 355.539C112.809 355.323 113.113 355.013 113.318 354.609C113.528 354.205 113.678 353.721 113.766 353.157ZM125.437 350.11V351.414H118.896V350.11H125.437ZM119.145 344.914V357H117.543V344.914H119.145ZM126.832 344.914V357H125.238V344.914H126.832ZM137.357 355.697V357H130.957V355.697H137.357ZM131.281 344.914V357H129.679V344.914H131.281ZM136.51 350.11V351.414H130.957V350.11H136.51ZM137.274 344.914V346.226H130.957V344.914H137.274Z" fill="black"/>
<path d="M71.6064 253.945C71.6064 253.663 71.5622 253.414 71.4736 253.198C71.3906 252.977 71.2412 252.778 71.0254 252.601C70.8151 252.424 70.5218 252.255 70.1455 252.094C69.7747 251.934 69.3044 251.771 68.7344 251.604C68.1367 251.427 67.5972 251.231 67.1157 251.015C66.6343 250.794 66.222 250.542 65.8789 250.26C65.5358 249.978 65.2729 249.654 65.0903 249.289C64.9077 248.923 64.8164 248.506 64.8164 248.035C64.8164 247.565 64.9132 247.13 65.1069 246.732C65.3006 246.333 65.5773 245.988 65.937 245.694C66.3022 245.396 66.7367 245.163 67.2402 244.997C67.7438 244.831 68.3055 244.748 68.9253 244.748C69.8328 244.748 70.6021 244.922 71.2329 245.271C71.8693 245.614 72.3535 246.065 72.6855 246.624C73.0176 247.177 73.1836 247.77 73.1836 248.4H71.5898C71.5898 247.947 71.493 247.545 71.2993 247.197C71.1056 246.843 70.8123 246.566 70.4194 246.367C70.0265 246.162 69.5285 246.06 68.9253 246.06C68.3553 246.06 67.8849 246.145 67.5142 246.317C67.1434 246.488 66.8667 246.721 66.6841 247.014C66.507 247.307 66.4185 247.642 66.4185 248.019C66.4185 248.273 66.471 248.506 66.5762 248.716C66.6868 248.921 66.8556 249.111 67.0825 249.289C67.3149 249.466 67.6082 249.629 67.9624 249.778C68.3221 249.928 68.751 250.072 69.249 250.21C69.9352 250.404 70.5273 250.619 71.0254 250.857C71.5234 251.095 71.9329 251.364 72.2539 251.663C72.5804 251.956 72.8211 252.291 72.9761 252.667C73.1366 253.038 73.2168 253.458 73.2168 253.929C73.2168 254.421 73.1172 254.867 72.918 255.265C72.7188 255.664 72.4338 256.004 72.063 256.286C71.6922 256.568 71.2467 256.787 70.7266 256.942C70.2119 257.091 69.6364 257.166 69 257.166C68.4411 257.166 67.8905 257.089 67.3481 256.934C66.8114 256.779 66.3216 256.546 65.8789 256.236C65.4417 255.926 65.0903 255.545 64.8247 255.091C64.5646 254.632 64.4346 254.1 64.4346 253.497H66.0283C66.0283 253.912 66.1086 254.269 66.269 254.568C66.4295 254.861 66.6481 255.105 66.9248 255.298C67.207 255.492 67.5252 255.636 67.8794 255.73C68.2391 255.819 68.6126 255.863 69 255.863C69.5589 255.863 70.0321 255.785 70.4194 255.63C70.8068 255.475 71.1001 255.254 71.2993 254.966C71.5041 254.679 71.6064 254.338 71.6064 253.945ZM79.7329 245.985L75.7319 257H74.0967L78.7036 244.914H79.7578L79.7329 245.985ZM83.0864 257L79.0771 245.985L79.0522 244.914H80.1064L84.73 257H83.0864ZM82.8789 252.526V253.837H76.0889V252.526H82.8789ZM86.855 244.914H88.4072L92.3667 254.767L96.3179 244.914H97.8784L92.9644 257H91.7524L86.855 244.914ZM86.3486 244.914H87.7183L87.9424 252.285V257H86.3486V244.914ZM97.0068 244.914H98.3765V257H96.7827V252.285L97.0068 244.914ZM108.869 255.697V257H102.469V255.697H108.869ZM102.792 244.914V257H101.19V244.914H102.792ZM108.022 250.11V251.414H102.469V250.11H108.022ZM108.786 244.914V246.226H102.469V244.914H108.786ZM114.123 257H111.6L111.616 255.697H114.123C114.986 255.697 115.706 255.517 116.281 255.157C116.857 254.792 117.288 254.283 117.576 253.63C117.869 252.971 118.016 252.202 118.016 251.322V250.583C118.016 249.892 117.933 249.278 117.767 248.741C117.601 248.198 117.358 247.742 117.037 247.371C116.716 246.995 116.323 246.71 115.858 246.516C115.399 246.322 114.87 246.226 114.272 246.226H111.55V244.914H114.272C115.064 244.914 115.786 245.047 116.439 245.312C117.092 245.573 117.654 245.952 118.124 246.45C118.6 246.942 118.965 247.54 119.22 248.243C119.474 248.94 119.602 249.726 119.602 250.6V251.322C119.602 252.197 119.474 252.985 119.22 253.688C118.965 254.385 118.597 254.98 118.116 255.473C117.64 255.965 117.064 256.344 116.389 256.61C115.72 256.87 114.964 257 114.123 257ZM112.455 244.914V257H110.853V244.914H112.455ZM123.727 244.914V257H122.125V244.914H123.727Z" fill="black"/>
<path d="M58.9521 152.166L62.5132 141.914H64.248L59.7739 154H58.5371L58.9521 152.166ZM55.6235 141.914L59.1514 152.166L59.5913 154H58.3545L53.8887 141.914H55.6235ZM73.5532 152.697V154H67.1533V152.697H73.5532ZM67.4771 141.914V154H65.875V141.914H67.4771ZM72.7065 147.11V148.414H67.1533V147.11H72.7065ZM73.4702 141.914V143.226H67.1533V141.914H73.4702ZM84.834 141.914V154H83.2236L77.1392 144.678V154H75.5371V141.914H77.1392L83.2485 151.261V141.914H84.834ZM90.9434 154H88.4199L88.4365 152.697H90.9434C91.8066 152.697 92.526 152.517 93.1016 152.157C93.6771 151.792 94.1087 151.283 94.3965 150.63C94.6898 149.971 94.8364 149.202 94.8364 148.322V147.583C94.8364 146.892 94.7534 146.278 94.5874 145.741C94.4214 145.198 94.1779 144.742 93.8569 144.371C93.536 143.995 93.1431 143.71 92.6782 143.516C92.2189 143.322 91.6904 143.226 91.0928 143.226H88.3701V141.914H91.0928C91.8841 141.914 92.6063 142.047 93.2593 142.312C93.9123 142.573 94.474 142.952 94.9443 143.45C95.4202 143.942 95.7855 144.54 96.04 145.243C96.2946 145.94 96.4219 146.726 96.4219 147.6V148.322C96.4219 149.197 96.2946 149.985 96.04 150.688C95.7855 151.385 95.4175 151.98 94.936 152.473C94.4601 152.965 93.8846 153.344 93.2095 153.61C92.5399 153.87 91.7845 154 90.9434 154ZM89.2749 141.914V154H87.6729V141.914H89.2749ZM98.8291 141.914H102.83C103.738 141.914 104.504 142.052 105.129 142.329C105.76 142.606 106.239 143.015 106.565 143.558C106.897 144.094 107.063 144.756 107.063 145.542C107.063 146.095 106.95 146.601 106.723 147.061C106.502 147.514 106.181 147.902 105.76 148.223C105.345 148.538 104.847 148.773 104.266 148.928L103.818 149.103H100.058L100.041 147.799H102.88C103.455 147.799 103.934 147.7 104.316 147.5C104.698 147.296 104.986 147.022 105.179 146.679C105.373 146.336 105.47 145.957 105.47 145.542C105.47 145.077 105.378 144.67 105.196 144.321C105.013 143.973 104.725 143.704 104.333 143.516C103.945 143.322 103.444 143.226 102.83 143.226H100.431V154H98.8291V141.914ZM105.893 154L102.955 148.521L104.623 148.513L107.603 153.9V154H105.893ZM116.983 152.697V154H110.583V152.697H116.983ZM110.907 141.914V154H109.305V141.914H110.907ZM116.136 147.11V148.414H110.583V147.11H116.136ZM116.9 141.914V143.226H110.583V141.914H116.9ZM122.237 154H119.714L119.73 152.697H122.237C123.101 152.697 123.82 152.517 124.396 152.157C124.971 151.792 125.403 151.283 125.69 150.63C125.984 149.971 126.13 149.202 126.13 148.322V147.583C126.13 146.892 126.047 146.278 125.881 145.741C125.715 145.198 125.472 144.742 125.151 144.371C124.83 143.995 124.437 143.71 123.972 143.516C123.513 143.322 122.984 143.226 122.387 143.226H119.664V141.914H122.387C123.178 141.914 123.9 142.047 124.553 142.312C125.206 142.573 125.768 142.952 126.238 143.45C126.714 143.942 127.079 144.54 127.334 145.243C127.589 145.94 127.716 146.726 127.716 147.6V148.322C127.716 149.197 127.589 149.985 127.334 150.688C127.079 151.385 126.711 151.98 126.23 152.473C125.754 152.965 125.179 153.344 124.503 153.61C123.834 153.87 123.078 154 122.237 154ZM120.569 141.914V154H118.967V141.914H120.569ZM131.841 141.914V154H130.239V141.914H131.841Z" fill="black"/>
<path d="M791.021 87.752V90.875C790.916 91.0312 790.748 91.207 790.518 91.4023C790.287 91.5938 789.969 91.7617 789.562 91.9062C789.16 92.0469 788.641 92.1172 788.004 92.1172C787.484 92.1172 787.006 92.0273 786.568 91.8477C786.135 91.6641 785.758 91.3984 785.438 91.0508C785.121 90.6992 784.875 90.2734 784.699 89.7734C784.527 89.2695 784.441 88.6992 784.441 88.0625V87.4004C784.441 86.7637 784.516 86.1953 784.664 85.6953C784.816 85.1953 785.039 84.7715 785.332 84.4238C785.625 84.0723 785.984 83.8066 786.41 83.627C786.836 83.4434 787.324 83.3516 787.875 83.3516C788.527 83.3516 789.072 83.4648 789.51 83.6914C789.951 83.9141 790.295 84.2227 790.541 84.6172C790.791 85.0117 790.951 85.4609 791.021 85.9648H789.891C789.84 85.6562 789.738 85.375 789.586 85.1211C789.438 84.8672 789.225 84.6641 788.947 84.5117C788.67 84.3555 788.312 84.2773 787.875 84.2773C787.48 84.2773 787.139 84.3496 786.85 84.4941C786.561 84.6387 786.322 84.8457 786.135 85.1152C785.947 85.3848 785.807 85.7109 785.713 86.0938C785.623 86.4766 785.578 86.9082 785.578 87.3887V88.0625C785.578 88.5547 785.635 88.9941 785.748 89.3809C785.865 89.7676 786.031 90.0977 786.246 90.3711C786.461 90.6406 786.717 90.8457 787.014 90.9863C787.314 91.127 787.646 91.1973 788.01 91.1973C788.412 91.1973 788.738 91.1641 788.988 91.0977C789.238 91.0273 789.434 90.9453 789.574 90.8516C789.715 90.7539 789.822 90.6621 789.896 90.5762V88.666H787.922V87.752H791.021ZM792.896 83.4688H795.721C796.361 83.4688 796.902 83.5664 797.344 83.7617C797.789 83.957 798.127 84.2461 798.357 84.6289C798.592 85.0078 798.709 85.4746 798.709 86.0293C798.709 86.4199 798.629 86.7773 798.469 87.1016C798.312 87.4219 798.086 87.6953 797.789 87.9219C797.496 88.1445 797.145 88.3105 796.734 88.4199L796.418 88.543H793.764L793.752 87.623H795.756C796.162 87.623 796.5 87.5527 796.77 87.4121C797.039 87.2676 797.242 87.0742 797.379 86.832C797.516 86.5898 797.584 86.3223 797.584 86.0293C797.584 85.7012 797.52 85.4141 797.391 85.168C797.262 84.9219 797.059 84.7324 796.781 84.5996C796.508 84.4629 796.154 84.3945 795.721 84.3945H794.027V92H792.896V83.4688ZM797.883 92L795.809 88.1328L796.986 88.127L799.09 91.9297V92H797.883ZM803.449 84.2246L800.625 92H799.471L802.723 83.4688H803.467L803.449 84.2246ZM805.816 92L802.986 84.2246L802.969 83.4688H803.713L806.977 92H805.816ZM805.67 88.8418V89.7676H800.877V88.8418H805.67ZM810.51 83.4688V92H809.396V83.4688H810.51ZM813.252 83.4688V84.3945H806.66V83.4688H813.252ZM819.398 83.4688H820.523V89.2402C820.523 89.8809 820.381 90.4141 820.096 90.8398C819.811 91.2656 819.432 91.5859 818.959 91.8008C818.49 92.0117 817.98 92.1172 817.43 92.1172C816.852 92.1172 816.328 92.0117 815.859 91.8008C815.395 91.5859 815.025 91.2656 814.752 90.8398C814.482 90.4141 814.348 89.8809 814.348 89.2402V83.4688H815.467V89.2402C815.467 89.6855 815.549 90.0527 815.713 90.3418C815.877 90.6309 816.105 90.8457 816.398 90.9863C816.695 91.127 817.039 91.1973 817.43 91.1973C817.824 91.1973 818.168 91.127 818.461 90.9863C818.758 90.8457 818.988 90.6309 819.152 90.3418C819.316 90.0527 819.398 89.6855 819.398 89.2402V83.4688ZM823.512 83.4688V92H822.381V83.4688H823.512ZM828.545 83.4688V92H827.432V83.4688H828.545ZM831.287 83.4688V84.3945H824.695V83.4688H831.287ZM838.441 88.6543H836.162V87.7344H838.441C838.883 87.7344 839.24 87.6641 839.514 87.5234C839.787 87.3828 839.986 87.1875 840.111 86.9375C840.24 86.6875 840.305 86.4023 840.305 86.082C840.305 85.7891 840.24 85.5137 840.111 85.2559C839.986 84.998 839.787 84.791 839.514 84.6348C839.24 84.4746 838.883 84.3945 838.441 84.3945H836.426V92H835.295V83.4688H838.441C839.086 83.4688 839.631 83.5801 840.076 83.8027C840.521 84.0254 840.859 84.334 841.09 84.7285C841.32 85.1191 841.436 85.5664 841.436 86.0703C841.436 86.6172 841.32 87.084 841.09 87.4707C840.859 87.8574 840.521 88.1523 840.076 88.3555C839.631 88.5547 839.086 88.6543 838.441 88.6543ZM849.434 87.4648V88.0039C849.434 88.6445 849.354 89.2188 849.193 89.7266C849.033 90.2344 848.803 90.666 848.502 91.0215C848.201 91.377 847.84 91.6484 847.418 91.8359C847 92.0234 846.531 92.1172 846.012 92.1172C845.508 92.1172 845.045 92.0234 844.623 91.8359C844.205 91.6484 843.842 91.377 843.533 91.0215C843.229 90.666 842.992 90.2344 842.824 89.7266C842.656 89.2188 842.572 88.6445 842.572 88.0039V87.4648C842.572 86.8242 842.654 86.252 842.818 85.748C842.986 85.2402 843.223 84.8086 843.527 84.4531C843.832 84.0938 844.193 83.8203 844.611 83.6328C845.033 83.4453 845.496 83.3516 846 83.3516C846.52 83.3516 846.988 83.4453 847.406 83.6328C847.828 83.8203 848.189 84.0938 848.49 84.4531C848.795 84.8086 849.027 85.2402 849.188 85.748C849.352 86.252 849.434 86.8242 849.434 87.4648ZM848.314 88.0039V87.4531C848.314 86.9453 848.262 86.4961 848.156 86.1055C848.055 85.7148 847.904 85.3867 847.705 85.1211C847.506 84.8555 847.262 84.6543 846.973 84.5176C846.688 84.3809 846.363 84.3125 846 84.3125C845.648 84.3125 845.33 84.3809 845.045 84.5176C844.764 84.6543 844.521 84.8555 844.318 85.1211C844.119 85.3867 843.965 85.7148 843.855 86.1055C843.746 86.4961 843.691 86.9453 843.691 87.4531V88.0039C843.691 88.5156 843.746 88.9688 843.855 89.3633C843.965 89.7539 844.121 90.084 844.324 90.3535C844.531 90.6191 844.775 90.8203 845.057 90.957C845.342 91.0938 845.66 91.1621 846.012 91.1621C846.379 91.1621 846.705 91.0938 846.99 90.957C847.275 90.8203 847.516 90.6191 847.711 90.3535C847.91 90.084 848.061 89.7539 848.162 89.3633C848.264 88.9688 848.314 88.5156 848.314 88.0039ZM856.008 83.4688H857.133V89.2402C857.133 89.8809 856.99 90.4141 856.705 90.8398C856.42 91.2656 856.041 91.5859 855.568 91.8008C855.1 92.0117 854.59 92.1172 854.039 92.1172C853.461 92.1172 852.938 92.0117 852.469 91.8008C852.004 91.5859 851.635 91.2656 851.361 90.8398C851.092 90.4141 850.957 89.8809 850.957 89.2402V83.4688H852.076V89.2402C852.076 89.6855 852.158 90.0527 852.322 90.3418C852.486 90.6309 852.715 90.8457 853.008 90.9863C853.305 91.127 853.648 91.1973 854.039 91.1973C854.434 91.1973 854.777 91.127 855.07 90.9863C855.367 90.8457 855.598 90.6309 855.762 90.3418C855.926 90.0527 856.008 89.6855 856.008 89.2402V83.4688ZM858.908 83.4688H861.732C862.373 83.4688 862.914 83.5664 863.355 83.7617C863.801 83.957 864.139 84.2461 864.369 84.6289C864.604 85.0078 864.721 85.4746 864.721 86.0293C864.721 86.4199 864.641 86.7773 864.48 87.1016C864.324 87.4219 864.098 87.6953 863.801 87.9219C863.508 88.1445 863.156 88.3105 862.746 88.4199L862.43 88.543H859.775L859.764 87.623H861.768C862.174 87.623 862.512 87.5527 862.781 87.4121C863.051 87.2676 863.254 87.0742 863.391 86.832C863.527 86.5898 863.596 86.3223 863.596 86.0293C863.596 85.7012 863.531 85.4141 863.402 85.168C863.273 84.9219 863.07 84.7324 862.793 84.5996C862.52 84.4629 862.166 84.3945 861.732 84.3945H860.039V92H858.908V83.4688ZM863.895 92L861.82 88.1328L862.998 88.127L865.102 91.9297V92H863.895ZM874.453 91.0801V92H870.188V91.0801H874.453ZM870.41 83.4688V92H869.279V83.4688H870.41ZM881.168 91.0801V92H876.65V91.0801H881.168ZM876.879 83.4688V92H875.748V83.4688H876.879ZM880.57 87.1367V88.0566H876.65V87.1367H880.57ZM881.109 83.4688V84.3945H876.65V83.4688H881.109ZM887.115 89.8438C887.115 89.6445 887.084 89.4688 887.021 89.3164C886.963 89.1602 886.857 89.0195 886.705 88.8945C886.557 88.7695 886.35 88.6504 886.084 88.5371C885.822 88.4238 885.49 88.3086 885.088 88.1914C884.666 88.0664 884.285 87.9277 883.945 87.7754C883.605 87.6191 883.314 87.4414 883.072 87.2422C882.83 87.043 882.645 86.8145 882.516 86.5566C882.387 86.2988 882.322 86.0039 882.322 85.6719C882.322 85.3398 882.391 85.0332 882.527 84.752C882.664 84.4707 882.859 84.2266 883.113 84.0195C883.371 83.8086 883.678 83.6445 884.033 83.5273C884.389 83.4102 884.785 83.3516 885.223 83.3516C885.863 83.3516 886.406 83.4746 886.852 83.7207C887.301 83.9629 887.643 84.2812 887.877 84.6758C888.111 85.0664 888.229 85.4844 888.229 85.9297H887.104C887.104 85.6094 887.035 85.3262 886.898 85.0801C886.762 84.8301 886.555 84.6348 886.277 84.4941C886 84.3496 885.648 84.2773 885.223 84.2773C884.82 84.2773 884.488 84.3379 884.227 84.459C883.965 84.5801 883.77 84.7441 883.641 84.9512C883.516 85.1582 883.453 85.3945 883.453 85.6602C883.453 85.8398 883.49 86.0039 883.564 86.1523C883.643 86.2969 883.762 86.4316 883.922 86.5566C884.086 86.6816 884.293 86.7969 884.543 86.9023C884.797 87.0078 885.1 87.1094 885.451 87.207C885.936 87.3438 886.354 87.4961 886.705 87.6641C887.057 87.832 887.346 88.0215 887.572 88.2324C887.803 88.4395 887.973 88.6758 888.082 88.9414C888.195 89.2031 888.252 89.5 888.252 89.832C888.252 90.1797 888.182 90.4941 888.041 90.7754C887.9 91.0566 887.699 91.2969 887.438 91.4961C887.176 91.6953 886.861 91.8496 886.494 91.959C886.131 92.0645 885.725 92.1172 885.275 92.1172C884.881 92.1172 884.492 92.0625 884.109 91.9531C883.73 91.8438 883.385 91.6797 883.072 91.4609C882.764 91.2422 882.516 90.9727 882.328 90.6523C882.145 90.3281 882.053 89.9531 882.053 89.5273H883.178C883.178 89.8203 883.234 90.0723 883.348 90.2832C883.461 90.4902 883.615 90.6621 883.811 90.7988C884.01 90.9355 884.234 91.0371 884.484 91.1035C884.738 91.166 885.002 91.1973 885.275 91.1973C885.67 91.1973 886.004 91.1426 886.277 91.0332C886.551 90.9238 886.758 90.7676 886.898 90.5645C887.043 90.3613 887.115 90.1211 887.115 89.8438ZM893.027 83.4688H894.123L896.918 90.4238L899.707 83.4688H900.809L897.34 92H896.484L893.027 83.4688ZM892.67 83.4688H893.637L893.795 88.6719V92H892.67V83.4688ZM900.193 83.4688H901.16V92H900.035V88.6719L900.193 83.4688ZM909.715 87.4648V88.0039C909.715 88.6445 909.635 89.2188 909.475 89.7266C909.314 90.2344 909.084 90.666 908.783 91.0215C908.482 91.377 908.121 91.6484 907.699 91.8359C907.281 92.0234 906.812 92.1172 906.293 92.1172C905.789 92.1172 905.326 92.0234 904.904 91.8359C904.486 91.6484 904.123 91.377 903.814 91.0215C903.51 90.666 903.273 90.2344 903.105 89.7266C902.938 89.2188 902.854 88.6445 902.854 88.0039V87.4648C902.854 86.8242 902.936 86.252 903.1 85.748C903.268 85.2402 903.504 84.8086 903.809 84.4531C904.113 84.0938 904.475 83.8203 904.893 83.6328C905.314 83.4453 905.777 83.3516 906.281 83.3516C906.801 83.3516 907.27 83.4453 907.688 83.6328C908.109 83.8203 908.471 84.0938 908.771 84.4531C909.076 84.8086 909.309 85.2402 909.469 85.748C909.633 86.252 909.715 86.8242 909.715 87.4648ZM908.596 88.0039V87.4531C908.596 86.9453 908.543 86.4961 908.438 86.1055C908.336 85.7148 908.186 85.3867 907.986 85.1211C907.787 84.8555 907.543 84.6543 907.254 84.5176C906.969 84.3809 906.645 84.3125 906.281 84.3125C905.93 84.3125 905.611 84.3809 905.326 84.5176C905.045 84.6543 904.803 84.8555 904.6 85.1211C904.4 85.3867 904.246 85.7148 904.137 86.1055C904.027 86.4961 903.973 86.9453 903.973 87.4531V88.0039C903.973 88.5156 904.027 88.9688 904.137 89.3633C904.246 89.7539 904.402 90.084 904.605 90.3535C904.812 90.6191 905.057 90.8203 905.338 90.957C905.623 91.0938 905.941 91.1621 906.293 91.1621C906.66 91.1621 906.986 91.0938 907.271 90.957C907.557 90.8203 907.797 90.6191 907.992 90.3535C908.191 90.084 908.342 89.7539 908.443 89.3633C908.545 88.9688 908.596 88.5156 908.596 88.0039ZM912.621 83.4688V92H911.49V83.4688H912.621ZM921.24 83.4688V92H920.104L915.809 85.4199V92H914.678V83.4688H915.809L920.121 90.0664V83.4688H921.24ZM927.791 89.8438C927.791 89.6445 927.76 89.4688 927.697 89.3164C927.639 89.1602 927.533 89.0195 927.381 88.8945C927.232 88.7695 927.025 88.6504 926.76 88.5371C926.498 88.4238 926.166 88.3086 925.764 88.1914C925.342 88.0664 924.961 87.9277 924.621 87.7754C924.281 87.6191 923.99 87.4414 923.748 87.2422C923.506 87.043 923.32 86.8145 923.191 86.5566C923.062 86.2988 922.998 86.0039 922.998 85.6719C922.998 85.3398 923.066 85.0332 923.203 84.752C923.34 84.4707 923.535 84.2266 923.789 84.0195C924.047 83.8086 924.354 83.6445 924.709 83.5273C925.064 83.4102 925.461 83.3516 925.898 83.3516C926.539 83.3516 927.082 83.4746 927.527 83.7207C927.977 83.9629 928.318 84.2812 928.553 84.6758C928.787 85.0664 928.904 85.4844 928.904 85.9297H927.779C927.779 85.6094 927.711 85.3262 927.574 85.0801C927.438 84.8301 927.23 84.6348 926.953 84.4941C926.676 84.3496 926.324 84.2773 925.898 84.2773C925.496 84.2773 925.164 84.3379 924.902 84.459C924.641 84.5801 924.445 84.7441 924.316 84.9512C924.191 85.1582 924.129 85.3945 924.129 85.6602C924.129 85.8398 924.166 86.0039 924.24 86.1523C924.318 86.2969 924.438 86.4316 924.598 86.5566C924.762 86.6816 924.969 86.7969 925.219 86.9023C925.473 87.0078 925.775 87.1094 926.127 87.207C926.611 87.3438 927.029 87.4961 927.381 87.6641C927.732 87.832 928.021 88.0215 928.248 88.2324C928.479 88.4395 928.648 88.6758 928.758 88.9414C928.871 89.2031 928.928 89.5 928.928 89.832C928.928 90.1797 928.857 90.4941 928.717 90.7754C928.576 91.0566 928.375 91.2969 928.113 91.4961C927.852 91.6953 927.537 91.8496 927.17 91.959C926.807 92.0645 926.4 92.1172 925.951 92.1172C925.557 92.1172 925.168 92.0625 924.785 91.9531C924.406 91.8438 924.061 91.6797 923.748 91.4609C923.439 91.2422 923.191 90.9727 923.004 90.6523C922.82 90.3281 922.729 89.9531 922.729 89.5273H923.854C923.854 89.8203 923.91 90.0723 924.023 90.2832C924.137 90.4902 924.291 90.6621 924.486 90.7988C924.686 90.9355 924.91 91.0371 925.16 91.1035C925.414 91.166 925.678 91.1973 925.951 91.1973C926.346 91.1973 926.68 91.1426 926.953 91.0332C927.227 90.9238 927.434 90.7676 927.574 90.5645C927.719 90.3613 927.791 90.1211 927.791 89.8438ZM935.654 92H933.873L933.885 91.0801H935.654C936.264 91.0801 936.771 90.9531 937.178 90.6992C937.584 90.4414 937.889 90.082 938.092 89.6211C938.299 89.1562 938.402 88.6133 938.402 87.9922V87.4707C938.402 86.9824 938.344 86.5488 938.227 86.1699C938.109 85.7871 937.938 85.4648 937.711 85.2031C937.484 84.9375 937.207 84.7363 936.879 84.5996C936.555 84.4629 936.182 84.3945 935.76 84.3945H933.838V83.4688H935.76C936.318 83.4688 936.828 83.5625 937.289 83.75C937.75 83.9336 938.146 84.2012 938.479 84.5527C938.814 84.9004 939.072 85.3223 939.252 85.8184C939.432 86.3105 939.521 86.8652 939.521 87.4824V87.9922C939.521 88.6094 939.432 89.166 939.252 89.6621C939.072 90.1543 938.812 90.5742 938.473 90.9219C938.137 91.2695 937.73 91.5371 937.254 91.7246C936.781 91.9082 936.248 92 935.654 92ZM934.477 83.4688V92H933.346V83.4688H934.477ZM946.641 91.0801V92H942.123V91.0801H946.641ZM942.352 83.4688V92H941.221V83.4688H942.352ZM946.043 87.1367V88.0566H942.123V87.1367H946.043ZM946.582 83.4688V84.3945H942.123V83.4688H946.582ZM952.318 87.2012H953.092C953.471 87.2012 953.783 87.1387 954.029 87.0137C954.279 86.8848 954.465 86.7109 954.586 86.4922C954.711 86.2695 954.773 86.0195 954.773 85.7422C954.773 85.4141 954.719 85.1387 954.609 84.916C954.5 84.6934 954.336 84.5254 954.117 84.4121C953.898 84.2988 953.621 84.2422 953.285 84.2422C952.98 84.2422 952.711 84.3027 952.477 84.4238C952.246 84.541 952.064 84.709 951.932 84.9277C951.803 85.1465 951.738 85.4043 951.738 85.7012H950.654C950.654 85.2676 950.764 84.873 950.982 84.5176C951.201 84.1621 951.508 83.8789 951.902 83.668C952.301 83.457 952.762 83.3516 953.285 83.3516C953.801 83.3516 954.252 83.4434 954.639 83.627C955.025 83.8066 955.326 84.0762 955.541 84.4355C955.756 84.791 955.863 85.2344 955.863 85.7656C955.863 85.9805 955.812 86.2109 955.711 86.457C955.613 86.6992 955.459 86.9258 955.248 87.1367C955.041 87.3477 954.771 87.5215 954.439 87.6582C954.107 87.791 953.709 87.8574 953.244 87.8574H952.318V87.2012ZM952.318 88.0918V87.4414H953.244C953.787 87.4414 954.236 87.5059 954.592 87.6348C954.947 87.7637 955.227 87.9355 955.43 88.1504C955.637 88.3652 955.781 88.6016 955.863 88.8594C955.949 89.1133 955.992 89.3672 955.992 89.6211C955.992 90.0195 955.924 90.373 955.787 90.6816C955.654 90.9902 955.465 91.252 955.219 91.4668C954.977 91.6816 954.691 91.8438 954.363 91.9531C954.035 92.0625 953.678 92.1172 953.291 92.1172C952.92 92.1172 952.57 92.0645 952.242 91.959C951.918 91.8535 951.631 91.7012 951.381 91.502C951.131 91.2988 950.936 91.0508 950.795 90.7578C950.654 90.4609 950.584 90.123 950.584 89.7441H951.668C951.668 90.041 951.732 90.3008 951.861 90.5234C951.994 90.7461 952.182 90.9199 952.424 91.0449C952.67 91.166 952.959 91.2266 953.291 91.2266C953.623 91.2266 953.908 91.1699 954.146 91.0566C954.389 90.9395 954.574 90.7637 954.703 90.5293C954.836 90.2949 954.902 90 954.902 89.6445C954.902 89.2891 954.828 88.998 954.68 88.7715C954.531 88.541 954.32 88.3711 954.047 88.2617C953.777 88.1484 953.459 88.0918 953.092 88.0918H952.318ZM963.902 84.2246L961.078 92H959.924L963.176 83.4688H963.92L963.902 84.2246ZM966.27 92L963.439 84.2246L963.422 83.4688H964.166L967.43 92H966.27ZM966.123 88.8418V89.7676H961.33V88.8418H966.123ZM975.135 83.4688V92H973.998L969.703 85.4199V92H968.572V83.4688H969.703L974.016 90.0664V83.4688H975.135ZM981.686 89.8438C981.686 89.6445 981.654 89.4688 981.592 89.3164C981.533 89.1602 981.428 89.0195 981.275 88.8945C981.127 88.7695 980.92 88.6504 980.654 88.5371C980.393 88.4238 980.061 88.3086 979.658 88.1914C979.236 88.0664 978.855 87.9277 978.516 87.7754C978.176 87.6191 977.885 87.4414 977.643 87.2422C977.4 87.043 977.215 86.8145 977.086 86.5566C976.957 86.2988 976.893 86.0039 976.893 85.6719C976.893 85.3398 976.961 85.0332 977.098 84.752C977.234 84.4707 977.43 84.2266 977.684 84.0195C977.941 83.8086 978.248 83.6445 978.604 83.5273C978.959 83.4102 979.355 83.3516 979.793 83.3516C980.434 83.3516 980.977 83.4746 981.422 83.7207C981.871 83.9629 982.213 84.2812 982.447 84.6758C982.682 85.0664 982.799 85.4844 982.799 85.9297H981.674C981.674 85.6094 981.605 85.3262 981.469 85.0801C981.332 84.8301 981.125 84.6348 980.848 84.4941C980.57 84.3496 980.219 84.2773 979.793 84.2773C979.391 84.2773 979.059 84.3379 978.797 84.459C978.535 84.5801 978.34 84.7441 978.211 84.9512C978.086 85.1582 978.023 85.3945 978.023 85.6602C978.023 85.8398 978.061 86.0039 978.135 86.1523C978.213 86.2969 978.332 86.4316 978.492 86.5566C978.656 86.6816 978.863 86.7969 979.113 86.9023C979.367 87.0078 979.67 87.1094 980.021 87.207C980.506 87.3438 980.924 87.4961 981.275 87.6641C981.627 87.832 981.916 88.0215 982.143 88.2324C982.373 88.4395 982.543 88.6758 982.652 88.9414C982.766 89.2031 982.822 89.5 982.822 89.832C982.822 90.1797 982.752 90.4941 982.611 90.7754C982.471 91.0566 982.27 91.2969 982.008 91.4961C981.746 91.6953 981.432 91.8496 981.064 91.959C980.701 92.0645 980.295 92.1172 979.846 92.1172C979.451 92.1172 979.062 92.0625 978.68 91.9531C978.301 91.8438 977.955 91.6797 977.643 91.4609C977.334 91.2422 977.086 90.9727 976.898 90.6523C976.715 90.3281 976.623 89.9531 976.623 89.5273H977.748C977.748 89.8203 977.805 90.0723 977.918 90.2832C978.031 90.4902 978.186 90.6621 978.381 90.7988C978.58 90.9355 978.805 91.0371 979.055 91.1035C979.309 91.166 979.572 91.1973 979.846 91.1973C980.24 91.1973 980.574 91.1426 980.848 91.0332C981.121 90.9238 981.328 90.7676 981.469 90.5645C981.613 90.3613 981.686 90.1211 981.686 89.8438Z" fill="black"/>
<path d="M860.129 53.6968V55H853.729V53.6968H860.129ZM854.053 42.9141V55H852.451V42.9141H854.053ZM859.283 48.1104V49.4136H853.729V48.1104H859.283ZM860.046 42.9141V44.2256H853.729V42.9141H860.046ZM871.41 42.9141V55H869.8L863.715 45.6782V55H862.113V42.9141H863.715L869.825 52.2607V42.9141H871.41ZM875.851 42.9141V55H874.249V42.9141H875.851ZM880.915 48.3511V49.6626H875.502V48.3511H880.915ZM881.736 42.9141V44.2256H875.502V42.9141H881.736ZM886.708 43.9849L882.708 55H881.072L885.679 42.9141H886.733L886.708 43.9849ZM890.062 55L886.053 43.9849L886.028 42.9141H887.082L891.706 55H890.062ZM889.854 50.5259V51.8374H883.064V50.5259H889.854ZM902.621 42.9141V55H901.011L894.926 45.6782V55H893.324V42.9141H894.926L901.036 52.2607V42.9141H902.621ZM909.677 42.9141V55H908.1V42.9141H909.677ZM913.562 42.9141V44.2256H904.223V42.9141H913.562Z" fill="black"/>
<path d="M442.403 51.9849L438.402 63H436.767L441.374 50.9141H442.428L442.403 51.9849ZM445.756 63L441.747 51.9849L441.722 50.9141H442.776L447.4 63H445.756ZM445.549 58.5259V59.8374H438.759V58.5259H445.549ZM452.289 63H449.766L449.782 61.6968H452.289C453.152 61.6968 453.872 61.5169 454.447 61.1572C455.023 60.792 455.454 60.2829 455.742 59.6299C456.035 58.9714 456.182 58.2021 456.182 57.3223V56.5835C456.182 55.8918 456.099 55.2775 455.933 54.7407C455.767 54.1984 455.524 53.7419 455.203 53.3711C454.882 52.9948 454.489 52.7098 454.024 52.5161C453.565 52.3224 453.036 52.2256 452.438 52.2256H449.716V50.9141H452.438C453.23 50.9141 453.952 51.0469 454.605 51.3125C455.258 51.5726 455.82 51.9517 456.29 52.4497C456.766 52.9422 457.131 53.5399 457.386 54.2427C457.64 54.9399 457.768 55.7257 457.768 56.6001V57.3223C457.768 58.1966 457.64 58.9852 457.386 59.688C457.131 60.3853 456.763 60.9801 456.282 61.4727C455.806 61.9652 455.23 62.3442 454.555 62.6099C453.886 62.87 453.13 63 452.289 63ZM450.621 50.9141V63H449.019V50.9141H450.621ZM467.089 50.9141H468.683V59.0903C468.683 59.9979 468.481 60.7533 468.077 61.3564C467.673 61.9596 467.136 62.4134 466.467 62.7178C465.803 63.0166 465.081 63.166 464.3 63.166C463.481 63.166 462.74 63.0166 462.076 62.7178C461.417 62.4134 460.894 61.9596 460.507 61.3564C460.125 60.7533 459.934 59.9979 459.934 59.0903V50.9141H461.52V59.0903C461.52 59.7212 461.636 60.2414 461.868 60.6509C462.101 61.0604 462.424 61.3647 462.839 61.564C463.26 61.7632 463.747 61.8628 464.3 61.8628C464.859 61.8628 465.346 61.7632 465.761 61.564C466.182 61.3647 466.508 61.0604 466.741 60.6509C466.973 60.2414 467.089 59.7212 467.089 59.0903V50.9141ZM478.528 61.6968V63H472.485V61.6968H478.528ZM472.8 50.9141V63H471.198V50.9141H472.8ZM482.537 50.9141V63H480.96V50.9141H482.537ZM486.422 50.9141V52.2256H477.083V50.9141H486.422ZM495.893 61.6968V63H489.493V61.6968H495.893ZM489.817 50.9141V63H488.215V50.9141H489.817ZM495.046 56.1104V57.4136H489.493V56.1104H495.046ZM495.81 50.9141V52.2256H489.493V50.9141H495.81Z" fill="black"/>
<path d="M2.0016 509.014L1032 506" stroke="white" stroke-width="6"/>
<path d="M0 403.718L1030 403" stroke="white" stroke-width="6"/>
<path d="M2.00165 305.089L1032 302" stroke="white" stroke-width="6"/>
<line x1="1.00264" y1="203" x2="1031" y2="203.907" stroke="white" stroke-width="6"/>
<line x1="1" y1="104" x2="1031" y2="104" stroke="white" stroke-width="6"/>
</svg>
