<svg width="40" height="35" viewBox="0 0 40 35" fill="none" xmlns="http://www.w3.org/2000/svg">
<path d="M0 2.875C0 1.28477 1.27679 0 2.85714 0H37.1429C38.7232 0 40 1.28477 40 2.875C40 4.46523 38.7232 5.75 37.1429 5.75H2.85714C1.27679 5.75 0 4.46523 0 2.875ZM0 17.25C0 15.6598 1.27679 14.375 2.85714 14.375H37.1429C38.7232 14.375 40 15.6598 40 17.25C40 18.8402 38.7232 20.125 37.1429 20.125H2.85714C1.27679 20.125 0 18.8402 0 17.25ZM40 31.625C40 33.2152 38.7232 34.5 37.1429 34.5H2.85714C1.27679 34.5 0 33.2152 0 31.625C0 30.0348 1.27679 28.75 2.85714 28.75H37.1429C38.7232 28.75 40 30.0348 40 31.625Z" fill="white"/>
</svg>
